<mxfile host="Electron" modified="2023-12-10T14:46:28.908Z" agent="Mozilla/5.0 (Windows NT 10.0; Win64; x64) AppleWebKit/537.36 (KHTML, like Gecko) draw.io/22.0.3 Chrome/114.0.5735.289 Electron/25.8.4 Safari/537.36" etag="ui6knfACpuZgOIbgJGP-" version="22.0.3" type="device">
  <diagram name="Seite-1" id="c28Q1IENT9KXUYJO6mZ8">
    <mxGraphModel dx="2607" dy="2050" grid="1" gridSize="10" guides="1" tooltips="1" connect="1" arrows="1" fold="1" page="1" pageScale="1" pageWidth="827" pageHeight="1169" math="0" shadow="0">
      <root>
        <mxCell id="0" />
        <mxCell id="1" parent="0" />
        <mxCell id="IfCNX7LFpCoSi9c5CtZU-1" value="Email" style="shape=folder;fontStyle=1;spacingTop=10;tabWidth=40;tabHeight=14;tabPosition=left;html=1;whiteSpace=wrap;strokeColor=#000000;" parent="1" vertex="1">
          <mxGeometry x="-448" y="50" width="70" height="50" as="geometry" />
        </mxCell>
        <mxCell id="IfCNX7LFpCoSi9c5CtZU-2" value="Security" style="shape=folder;fontStyle=1;spacingTop=10;tabWidth=40;tabHeight=14;tabPosition=left;html=1;whiteSpace=wrap;strokeColor=#000000;" parent="1" vertex="1">
          <mxGeometry x="-740" y="20" width="70" height="50" as="geometry" />
        </mxCell>
        <mxCell id="IfCNX7LFpCoSi9c5CtZU-3" value="Friendlist" style="shape=folder;fontStyle=1;spacingTop=10;tabWidth=40;tabHeight=14;tabPosition=left;html=1;whiteSpace=wrap;strokeColor=#000000;" parent="1" vertex="1">
          <mxGeometry x="-570" y="10" width="70" height="50" as="geometry" />
        </mxCell>
        <mxCell id="IfCNX7LFpCoSi9c5CtZU-4" value="Chat" style="shape=folder;fontStyle=1;spacingTop=10;tabWidth=40;tabHeight=14;tabPosition=left;html=1;whiteSpace=wrap;strokeColor=#000000;" parent="1" vertex="1">
          <mxGeometry x="-440" y="170" width="70" height="50" as="geometry" />
        </mxCell>
        <mxCell id="IfCNX7LFpCoSi9c5CtZU-5" value="Matchmaking" style="shape=folder;fontStyle=1;spacingTop=10;tabWidth=40;tabHeight=14;tabPosition=left;html=1;whiteSpace=wrap;strokeColor=#000000;" parent="1" vertex="1">
          <mxGeometry x="-664" y="220" width="70" height="50" as="geometry" />
        </mxCell>
        <mxCell id="IfCNX7LFpCoSi9c5CtZU-7" value="User" style="shape=folder;fontStyle=1;spacingTop=10;tabWidth=40;tabHeight=14;tabPosition=left;html=1;whiteSpace=wrap;strokeColor=#000000;" parent="1" vertex="1">
          <mxGeometry x="-580" y="90" width="70" height="50" as="geometry" />
        </mxCell>
        <mxCell id="IfCNX7LFpCoSi9c5CtZU-9" value="ChessClub" style="shape=folder;fontStyle=1;spacingTop=10;tabWidth=40;tabHeight=14;tabPosition=left;html=1;whiteSpace=wrap;strokeColor=#000000;" parent="1" vertex="1">
          <mxGeometry x="-550" y="190" width="70" height="50" as="geometry" />
        </mxCell>
        <mxCell id="IfCNX7LFpCoSi9c5CtZU-10" style="edgeStyle=orthogonalEdgeStyle;rounded=0;orthogonalLoop=1;jettySize=auto;html=1;entryX=0;entryY=0;entryDx=0;entryDy=32;entryPerimeter=0;strokeColor=#000000;" parent="1" source="IfCNX7LFpCoSi9c5CtZU-7" target="IfCNX7LFpCoSi9c5CtZU-1" edge="1">
          <mxGeometry relative="1" as="geometry" />
        </mxCell>
        <mxCell id="IfCNX7LFpCoSi9c5CtZU-11" style="edgeStyle=orthogonalEdgeStyle;rounded=0;orthogonalLoop=1;jettySize=auto;html=1;entryX=0.419;entryY=0.047;entryDx=0;entryDy=0;entryPerimeter=0;strokeColor=#000000;" parent="1" source="IfCNX7LFpCoSi9c5CtZU-3" target="IfCNX7LFpCoSi9c5CtZU-7" edge="1">
          <mxGeometry relative="1" as="geometry" />
        </mxCell>
        <mxCell id="IfCNX7LFpCoSi9c5CtZU-12" style="edgeStyle=orthogonalEdgeStyle;rounded=0;orthogonalLoop=1;jettySize=auto;html=1;entryX=0;entryY=0;entryDx=70;entryDy=41;entryPerimeter=0;strokeColor=#000000;" parent="1" source="IfCNX7LFpCoSi9c5CtZU-4" target="IfCNX7LFpCoSi9c5CtZU-7" edge="1">
          <mxGeometry relative="1" as="geometry" />
        </mxCell>
        <mxCell id="IfCNX7LFpCoSi9c5CtZU-14" style="edgeStyle=orthogonalEdgeStyle;rounded=0;orthogonalLoop=1;jettySize=auto;html=1;exitX=0;exitY=0;exitDx=70;exitDy=32;exitPerimeter=0;entryX=0;entryY=0;entryDx=110;entryDy=0;entryPerimeter=0;" parent="1" source="IfCNX7LFpCoSi9c5CtZU-5" target="IfCNX7LFpCoSi9c5CtZU-20" edge="1">
          <mxGeometry relative="1" as="geometry">
            <mxPoint x="-280" y="361" as="targetPoint" />
            <Array as="points">
              <mxPoint x="-580" y="252" />
              <mxPoint x="-580" y="300" />
            </Array>
          </mxGeometry>
        </mxCell>
        <mxCell id="IfCNX7LFpCoSi9c5CtZU-15" style="edgeStyle=orthogonalEdgeStyle;rounded=0;orthogonalLoop=1;jettySize=auto;html=1;strokeColor=#000000;entryX=0.639;entryY=1.028;entryDx=0;entryDy=0;entryPerimeter=0;exitX=0.367;exitY=-0.007;exitDx=0;exitDy=0;exitPerimeter=0;" parent="1" source="IfCNX7LFpCoSi9c5CtZU-9" target="IfCNX7LFpCoSi9c5CtZU-7" edge="1">
          <mxGeometry relative="1" as="geometry">
            <mxPoint x="-449" y="180" as="targetPoint" />
            <Array as="points">
              <mxPoint x="-524" y="180" />
              <mxPoint x="-535" y="180" />
            </Array>
          </mxGeometry>
        </mxCell>
        <mxCell id="IfCNX7LFpCoSi9c5CtZU-16" style="edgeStyle=orthogonalEdgeStyle;rounded=0;orthogonalLoop=1;jettySize=auto;html=1;entryX=0.25;entryY=1;entryDx=0;entryDy=0;entryPerimeter=0;strokeColor=#000000;" parent="1" source="IfCNX7LFpCoSi9c5CtZU-5" target="IfCNX7LFpCoSi9c5CtZU-7" edge="1">
          <mxGeometry relative="1" as="geometry" />
        </mxCell>
        <mxCell id="IfCNX7LFpCoSi9c5CtZU-17" style="edgeStyle=orthogonalEdgeStyle;rounded=0;orthogonalLoop=1;jettySize=auto;html=1;entryX=0;entryY=0;entryDx=70;entryDy=41;entryPerimeter=0;strokeColor=#000000;" parent="1" source="IfCNX7LFpCoSi9c5CtZU-3" target="IfCNX7LFpCoSi9c5CtZU-1" edge="1">
          <mxGeometry relative="1" as="geometry" />
        </mxCell>
        <mxCell id="IfCNX7LFpCoSi9c5CtZU-18" style="edgeStyle=orthogonalEdgeStyle;rounded=0;orthogonalLoop=1;jettySize=auto;html=1;entryX=0;entryY=0;entryDx=0;entryDy=41;entryPerimeter=0;strokeColor=#000000;" parent="1" source="IfCNX7LFpCoSi9c5CtZU-2" target="IfCNX7LFpCoSi9c5CtZU-7" edge="1">
          <mxGeometry relative="1" as="geometry" />
        </mxCell>
        <mxCell id="IfCNX7LFpCoSi9c5CtZU-19" style="edgeStyle=orthogonalEdgeStyle;rounded=0;orthogonalLoop=1;jettySize=auto;html=1;entryX=0;entryY=0;entryDx=0;entryDy=41;entryPerimeter=0;strokeColor=#000000;" parent="1" source="IfCNX7LFpCoSi9c5CtZU-9" target="IfCNX7LFpCoSi9c5CtZU-4" edge="1">
          <mxGeometry relative="1" as="geometry" />
        </mxCell>
        <mxCell id="IfCNX7LFpCoSi9c5CtZU-20" value="Package" style="shape=folder;fontStyle=1;tabWidth=110;tabHeight=30;tabPosition=left;html=1;boundedLbl=1;labelInHeader=1;container=1;collapsible=0;whiteSpace=wrap;" parent="1" vertex="1">
          <mxGeometry x="-350" y="120" width="1140" height="950" as="geometry" />
        </mxCell>
        <mxCell id="IfCNX7LFpCoSi9c5CtZU-21" value="ChessGame" style="html=1;strokeColor=none;resizeWidth=1;resizeHeight=1;fillColor=none;part=1;connectable=0;allowArrows=0;deletable=0;whiteSpace=wrap;" parent="IfCNX7LFpCoSi9c5CtZU-20" vertex="1">
          <mxGeometry width="1140" height="89.86486486486487" relative="1" as="geometry">
            <mxPoint y="30" as="offset" />
          </mxGeometry>
        </mxCell>
        <mxCell id="IfCNX7LFpCoSi9c5CtZU-80" value="ChessBoardManager" style="swimlane;fontStyle=1;align=center;verticalAlign=top;childLayout=stackLayout;horizontal=1;startSize=26;horizontalStack=0;resizeParent=1;resizeParentMax=0;resizeLast=0;collapsible=1;marginBottom=0;whiteSpace=wrap;html=1;fillColor=#FFFFFF;" parent="IfCNX7LFpCoSi9c5CtZU-20" vertex="1">
          <mxGeometry x="613" y="600" width="360" height="270" as="geometry" />
        </mxCell>
        <mxCell id="IfCNX7LFpCoSi9c5CtZU-81" value="-Board:ChessBoard" style="text;strokeColor=none;fillColor=#FFFFFF;align=left;verticalAlign=top;spacingLeft=4;spacingRight=4;overflow=hidden;rotatable=0;points=[[0,0.5],[1,0.5]];portConstraint=eastwest;whiteSpace=wrap;html=1;" parent="IfCNX7LFpCoSi9c5CtZU-80" vertex="1">
          <mxGeometry y="26" width="360" height="26" as="geometry" />
        </mxCell>
        <mxCell id="IfCNX7LFpCoSi9c5CtZU-82" value="+ hasEnded: boolean" style="text;whiteSpace=wrap;html=1;fillColor=#FFFFFF;" parent="IfCNX7LFpCoSi9c5CtZU-80" vertex="1">
          <mxGeometry y="52" width="360" height="28" as="geometry" />
        </mxCell>
        <mxCell id="IfCNX7LFpCoSi9c5CtZU-83" value="" style="line;strokeWidth=1;fillColor=#FFFFFF;align=left;verticalAlign=middle;spacingTop=-1;spacingLeft=3;spacingRight=3;rotatable=0;labelPosition=right;points=[];portConstraint=eastwest;strokeColor=inherit;" parent="IfCNX7LFpCoSi9c5CtZU-80" vertex="1">
          <mxGeometry y="80" width="360" height="8" as="geometry" />
        </mxCell>
        <mxCell id="IfCNX7LFpCoSi9c5CtZU-84" value="+startNewMatch(time:double,startConfig:integer[][][]:void" style="text;strokeColor=none;fillColor=#FFFFFF;align=left;verticalAlign=top;spacingLeft=4;spacingRight=4;overflow=hidden;rotatable=0;points=[[0,0.5],[1,0.5]];portConstraint=eastwest;whiteSpace=wrap;html=1;" parent="IfCNX7LFpCoSi9c5CtZU-80" vertex="1">
          <mxGeometry y="88" width="360" height="26" as="geometry" />
        </mxCell>
        <mxCell id="IfCNX7LFpCoSi9c5CtZU-85" value="+getDefaultStartConfig():integer[][][]" style="text;strokeColor=none;fillColor=#FFFFFF;align=left;verticalAlign=top;spacingLeft=4;spacingRight=4;overflow=hidden;rotatable=0;points=[[0,0.5],[1,0.5]];portConstraint=eastwest;whiteSpace=wrap;html=1;" parent="IfCNX7LFpCoSi9c5CtZU-80" vertex="1">
          <mxGeometry y="114" width="360" height="26" as="geometry" />
        </mxCell>
        <mxCell id="IfCNX7LFpCoSi9c5CtZU-86" value="+getBlackMatchView:integer[][][]" style="text;strokeColor=none;fillColor=#FFFFFF;align=left;verticalAlign=top;spacingLeft=4;spacingRight=4;overflow=hidden;rotatable=0;points=[[0,0.5],[1,0.5]];portConstraint=eastwest;whiteSpace=wrap;html=1;" parent="IfCNX7LFpCoSi9c5CtZU-80" vertex="1">
          <mxGeometry y="140" width="360" height="26" as="geometry" />
        </mxCell>
        <mxCell id="IfCNX7LFpCoSi9c5CtZU-87" value="+getWhiteMatchView:integer[][][]" style="text;strokeColor=none;fillColor=#FFFFFF;align=left;verticalAlign=top;spacingLeft=4;spacingRight=4;overflow=hidden;rotatable=0;points=[[0,0.5],[1,0.5]];portConstraint=eastwest;whiteSpace=wrap;html=1;" parent="IfCNX7LFpCoSi9c5CtZU-80" vertex="1">
          <mxGeometry y="166" width="360" height="26" as="geometry" />
        </mxCell>
        <mxCell id="IfCNX7LFpCoSi9c5CtZU-88" value="+getGameFromCSV(String csv):integer[][][]" style="text;strokeColor=none;fillColor=#FFFFFF;align=left;verticalAlign=top;spacingLeft=4;spacingRight=4;overflow=hidden;rotatable=0;points=[[0,0.5],[1,0.5]];portConstraint=eastwest;whiteSpace=wrap;html=1;" parent="IfCNX7LFpCoSi9c5CtZU-80" vertex="1">
          <mxGeometry y="192" width="360" height="26" as="geometry" />
        </mxCell>
        <mxCell id="IfCNX7LFpCoSi9c5CtZU-89" value="+getManagedBoard:ChessBoard" style="text;strokeColor=none;fillColor=#FFFFFF;align=left;verticalAlign=top;spacingLeft=4;spacingRight=4;overflow=hidden;rotatable=0;points=[[0,0.5],[1,0.5]];portConstraint=eastwest;whiteSpace=wrap;html=1;" parent="IfCNX7LFpCoSi9c5CtZU-80" vertex="1">
          <mxGeometry y="218" width="360" height="26" as="geometry" />
        </mxCell>
        <mxCell id="IfCNX7LFpCoSi9c5CtZU-90" value="+getGameFromCSV(String csv):integer[][][]" style="text;strokeColor=none;fillColor=#FFFFFF;align=left;verticalAlign=top;spacingLeft=4;spacingRight=4;overflow=hidden;rotatable=0;points=[[0,0.5],[1,0.5]];portConstraint=eastwest;whiteSpace=wrap;html=1;" parent="IfCNX7LFpCoSi9c5CtZU-80" vertex="1">
          <mxGeometry y="244" width="360" height="26" as="geometry" />
        </mxCell>
        <mxCell id="IfCNX7LFpCoSi9c5CtZU-91" value="ChessBoard" style="swimlane;fontStyle=1;align=center;verticalAlign=top;childLayout=stackLayout;horizontal=1;startSize=26;horizontalStack=0;resizeParent=1;resizeParentMax=0;resizeLast=0;collapsible=1;marginBottom=0;whiteSpace=wrap;html=1;fillColor=#FFFFFF;" parent="IfCNX7LFpCoSi9c5CtZU-20" vertex="1">
          <mxGeometry x="70" y="270" width="350" height="478" as="geometry" />
        </mxCell>
        <mxCell id="IfCNX7LFpCoSi9c5CtZU-92" value="-Board:ChessPiece[][]" style="text;strokeColor=none;fillColor=#FFFFFF;align=left;verticalAlign=top;spacingLeft=4;spacingRight=4;overflow=hidden;rotatable=0;points=[[0,0.5],[1,0.5]];portConstraint=eastwest;whiteSpace=wrap;html=1;" parent="IfCNX7LFpCoSi9c5CtZU-91" vertex="1">
          <mxGeometry y="26" width="350" height="22" as="geometry" />
        </mxCell>
        <mxCell id="IfCNX7LFpCoSi9c5CtZU-93" value="-currentPlayer:Color" style="text;strokeColor=none;fillColor=#FFFFFF;align=left;verticalAlign=top;spacingLeft=4;spacingRight=4;overflow=hidden;rotatable=0;points=[[0,0.5],[1,0.5]];portConstraint=eastwest;whiteSpace=wrap;html=1;" parent="IfCNX7LFpCoSi9c5CtZU-91" vertex="1">
          <mxGeometry y="48" width="350" height="22" as="geometry" />
        </mxCell>
        <mxCell id="IfCNX7LFpCoSi9c5CtZU-94" value="-whiteTime:Long" style="text;strokeColor=none;fillColor=#FFFFFF;align=left;verticalAlign=top;spacingLeft=4;spacingRight=4;overflow=hidden;rotatable=0;points=[[0,0.5],[1,0.5]];portConstraint=eastwest;whiteSpace=wrap;html=1;" parent="IfCNX7LFpCoSi9c5CtZU-91" vertex="1">
          <mxGeometry y="70" width="350" height="22" as="geometry" />
        </mxCell>
        <mxCell id="IfCNX7LFpCoSi9c5CtZU-95" value="-blacktime:Long" style="text;strokeColor=none;fillColor=#FFFFFF;align=left;verticalAlign=top;spacingLeft=4;spacingRight=4;overflow=hidden;rotatable=0;points=[[0,0.5],[1,0.5]];portConstraint=eastwest;whiteSpace=wrap;html=1;" parent="IfCNX7LFpCoSi9c5CtZU-91" vertex="1">
          <mxGeometry y="92" width="350" height="22" as="geometry" />
        </mxCell>
        <mxCell id="IfCNX7LFpCoSi9c5CtZU-96" value="-winner:Color" style="text;strokeColor=none;fillColor=#FFFFFF;align=left;verticalAlign=top;spacingLeft=4;spacingRight=4;overflow=hidden;rotatable=0;points=[[0,0.5],[1,0.5]];portConstraint=eastwest;whiteSpace=wrap;html=1;" parent="IfCNX7LFpCoSi9c5CtZU-91" vertex="1">
          <mxGeometry y="114" width="350" height="22" as="geometry" />
        </mxCell>
        <mxCell id="IfCNX7LFpCoSi9c5CtZU-97" value="-intervallStart:Long" style="text;strokeColor=none;fillColor=#FFFFFF;align=left;verticalAlign=top;spacingLeft=4;spacingRight=4;overflow=hidden;rotatable=0;points=[[0,0.5],[1,0.5]];portConstraint=eastwest;whiteSpace=wrap;html=1;" parent="IfCNX7LFpCoSi9c5CtZU-91" vertex="1">
          <mxGeometry y="136" width="350" height="22" as="geometry" />
        </mxCell>
        <mxCell id="IfCNX7LFpCoSi9c5CtZU-98" value="" style="line;strokeWidth=1;fillColor=#FFFFFF;align=left;verticalAlign=middle;spacingTop=-1;spacingLeft=3;spacingRight=3;rotatable=0;labelPosition=right;points=[];portConstraint=eastwest;strokeColor=inherit;" parent="IfCNX7LFpCoSi9c5CtZU-91" vertex="1">
          <mxGeometry y="158" width="350" height="8" as="geometry" />
        </mxCell>
        <mxCell id="IfCNX7LFpCoSi9c5CtZU-99" value="+ChessBoard(timeinMin:double, Board:int[][][])" style="text;strokeColor=none;fillColor=#FFFFFF;align=left;verticalAlign=top;spacingLeft=4;spacingRight=4;overflow=hidden;rotatable=0;points=[[0,0.5],[1,0.5]];portConstraint=eastwest;whiteSpace=wrap;html=1;" parent="IfCNX7LFpCoSi9c5CtZU-91" vertex="1">
          <mxGeometry y="166" width="350" height="26" as="geometry" />
        </mxCell>
        <mxCell id="IfCNX7LFpCoSi9c5CtZU-100" value="+constructBoard(Board:int[][][]):ChessPiece[][]" style="text;strokeColor=none;fillColor=#FFFFFF;align=left;verticalAlign=top;spacingLeft=4;spacingRight=4;overflow=hidden;rotatable=0;points=[[0,0.5],[1,0.5]];portConstraint=eastwest;whiteSpace=wrap;html=1;" parent="IfCNX7LFpCoSi9c5CtZU-91" vertex="1">
          <mxGeometry y="192" width="350" height="26" as="geometry" />
        </mxCell>
        <mxCell id="IfCNX7LFpCoSi9c5CtZU-101" value="+nextStep(x:integer,y:integer,gotoX:integer,gotoY:integer):void" style="text;strokeColor=none;fillColor=#FFFFFF;align=left;verticalAlign=top;spacingLeft=4;spacingRight=4;overflow=hidden;rotatable=0;points=[[0,0.5],[1,0.5]];portConstraint=eastwest;whiteSpace=wrap;html=1;" parent="IfCNX7LFpCoSi9c5CtZU-91" vertex="1">
          <mxGeometry y="218" width="350" height="26" as="geometry" />
        </mxCell>
        <mxCell id="IfCNX7LFpCoSi9c5CtZU-102" value="+getWInner():Color" style="text;strokeColor=none;fillColor=#FFFFFF;align=left;verticalAlign=top;spacingLeft=4;spacingRight=4;overflow=hidden;rotatable=0;points=[[0,0.5],[1,0.5]];portConstraint=eastwest;whiteSpace=wrap;html=1;" parent="IfCNX7LFpCoSi9c5CtZU-91" vertex="1">
          <mxGeometry y="244" width="350" height="26" as="geometry" />
        </mxCell>
        <mxCell id="IfCNX7LFpCoSi9c5CtZU-103" value="+getCurrentActivePlayer():Color" style="text;strokeColor=none;fillColor=#FFFFFF;align=left;verticalAlign=top;spacingLeft=4;spacingRight=4;overflow=hidden;rotatable=0;points=[[0,0.5],[1,0.5]];portConstraint=eastwest;whiteSpace=wrap;html=1;" parent="IfCNX7LFpCoSi9c5CtZU-91" vertex="1">
          <mxGeometry y="270" width="350" height="26" as="geometry" />
        </mxCell>
        <mxCell id="IfCNX7LFpCoSi9c5CtZU-104" value="+getCurrentAmountOfPieces():integer" style="text;strokeColor=none;fillColor=#FFFFFF;align=left;verticalAlign=top;spacingLeft=4;spacingRight=4;overflow=hidden;rotatable=0;points=[[0,0.5],[1,0.5]];portConstraint=eastwest;whiteSpace=wrap;html=1;" parent="IfCNX7LFpCoSi9c5CtZU-91" vertex="1">
          <mxGeometry y="296" width="350" height="26" as="geometry" />
        </mxCell>
        <mxCell id="IfCNX7LFpCoSi9c5CtZU-105" value="+getHighlightOf(x:integer,y:integer):integer" style="text;strokeColor=none;fillColor=#FFFFFF;align=left;verticalAlign=top;spacingLeft=4;spacingRight=4;overflow=hidden;rotatable=0;points=[[0,0.5],[1,0.5]];portConstraint=eastwest;whiteSpace=wrap;html=1;" parent="IfCNX7LFpCoSi9c5CtZU-91" vertex="1">
          <mxGeometry y="322" width="350" height="26" as="geometry" />
        </mxCell>
        <mxCell id="IfCNX7LFpCoSi9c5CtZU-106" value="+checkedGetHighlightOf(x:integer,y:integer):integer" style="text;strokeColor=none;fillColor=#FFFFFF;align=left;verticalAlign=top;spacingLeft=4;spacingRight=4;overflow=hidden;rotatable=0;points=[[0,0.5],[1,0.5]];portConstraint=eastwest;whiteSpace=wrap;html=1;" parent="IfCNX7LFpCoSi9c5CtZU-91" vertex="1">
          <mxGeometry y="348" width="350" height="26" as="geometry" />
        </mxCell>
        <mxCell id="IfCNX7LFpCoSi9c5CtZU-107" value="+getTime():Long[]" style="text;strokeColor=none;fillColor=#FFFFFF;align=left;verticalAlign=top;spacingLeft=4;spacingRight=4;overflow=hidden;rotatable=0;points=[[0,0.5],[1,0.5]];portConstraint=eastwest;whiteSpace=wrap;html=1;" parent="IfCNX7LFpCoSi9c5CtZU-91" vertex="1">
          <mxGeometry y="374" width="350" height="26" as="geometry" />
        </mxCell>
        <mxCell id="IfCNX7LFpCoSi9c5CtZU-108" value="+getTimeInMin():Double" style="text;strokeColor=none;fillColor=#FFFFFF;align=left;verticalAlign=top;spacingLeft=4;spacingRight=4;overflow=hidden;rotatable=0;points=[[0,0.5],[1,0.5]];portConstraint=eastwest;whiteSpace=wrap;html=1;" parent="IfCNX7LFpCoSi9c5CtZU-91" vertex="1">
          <mxGeometry y="400" width="350" height="26" as="geometry" />
        </mxCell>
        <mxCell id="IfCNX7LFpCoSi9c5CtZU-109" value="+pieceToStrinf(x:integer,y:integer):String" style="text;strokeColor=none;fillColor=#FFFFFF;align=left;verticalAlign=top;spacingLeft=4;spacingRight=4;overflow=hidden;rotatable=0;points=[[0,0.5],[1,0.5]];portConstraint=eastwest;whiteSpace=wrap;html=1;" parent="IfCNX7LFpCoSi9c5CtZU-91" vertex="1">
          <mxGeometry y="426" width="350" height="26" as="geometry" />
        </mxCell>
        <mxCell id="IfCNX7LFpCoSi9c5CtZU-110" value="+toString():String" style="text;strokeColor=none;fillColor=#FFFFFF;align=left;verticalAlign=top;spacingLeft=4;spacingRight=4;overflow=hidden;rotatable=0;points=[[0,0.5],[1,0.5]];portConstraint=eastwest;whiteSpace=wrap;html=1;" parent="IfCNX7LFpCoSi9c5CtZU-91" vertex="1">
          <mxGeometry y="452" width="350" height="26" as="geometry" />
        </mxCell>
        <mxCell id="IfCNX7LFpCoSi9c5CtZU-77" style="edgeStyle=orthogonalEdgeStyle;rounded=0;orthogonalLoop=1;jettySize=auto;html=1;entryX=1;entryY=0.5;entryDx=0;entryDy=0;exitX=0;exitY=0.5;exitDx=0;exitDy=0;fillColor=#FFFFFF;" parent="IfCNX7LFpCoSi9c5CtZU-20" source="IfCNX7LFpCoSi9c5CtZU-86" target="IfCNX7LFpCoSi9c5CtZU-109" edge="1">
          <mxGeometry relative="1" as="geometry">
            <mxPoint x="220" y="830" as="targetPoint" />
            <Array as="points">
              <mxPoint x="490" y="753" />
              <mxPoint x="490" y="709" />
            </Array>
          </mxGeometry>
        </mxCell>
        <mxCell id="IfCNX7LFpCoSi9c5CtZU-78" value="1" style="edgeLabel;html=1;align=center;verticalAlign=middle;resizable=0;points=[];fillColor=#FFFFFF;" parent="IfCNX7LFpCoSi9c5CtZU-77" vertex="1" connectable="0">
          <mxGeometry x="-0.8044" y="2" relative="1" as="geometry">
            <mxPoint x="1" as="offset" />
          </mxGeometry>
        </mxCell>
        <mxCell id="IfCNX7LFpCoSi9c5CtZU-79" value="1" style="edgeLabel;html=1;align=center;verticalAlign=middle;resizable=0;points=[];fillColor=#FFFFFF;" parent="IfCNX7LFpCoSi9c5CtZU-77" vertex="1" connectable="0">
          <mxGeometry x="0.7845" y="1" relative="1" as="geometry">
            <mxPoint y="1" as="offset" />
          </mxGeometry>
        </mxCell>
        <mxCell id="IfCNX7LFpCoSi9c5CtZU-111" value="ChessPiece" style="swimlane;fontStyle=1;align=center;verticalAlign=top;childLayout=stackLayout;horizontal=1;startSize=26;horizontalStack=0;resizeParent=1;resizeParentMax=0;resizeLast=0;collapsible=1;marginBottom=0;whiteSpace=wrap;html=1;fillColor=#FFFFFF;" parent="IfCNX7LFpCoSi9c5CtZU-20" vertex="1">
          <mxGeometry x="540" y="270" width="260" height="190" as="geometry" />
        </mxCell>
        <mxCell id="IfCNX7LFpCoSi9c5CtZU-112" value="-type:ChessPieceType" style="text;strokeColor=none;fillColor=#FFFFFF;align=left;verticalAlign=top;spacingLeft=4;spacingRight=4;overflow=hidden;rotatable=0;points=[[0,0.5],[1,0.5]];portConstraint=eastwest;whiteSpace=wrap;html=1;" parent="IfCNX7LFpCoSi9c5CtZU-111" vertex="1">
          <mxGeometry y="26" width="260" height="26" as="geometry" />
        </mxCell>
        <mxCell id="IfCNX7LFpCoSi9c5CtZU-113" value="-color:Color" style="text;strokeColor=none;fillColor=#FFFFFF;align=left;verticalAlign=top;spacingLeft=4;spacingRight=4;overflow=hidden;rotatable=0;points=[[0,0.5],[1,0.5]];portConstraint=eastwest;whiteSpace=wrap;html=1;" parent="IfCNX7LFpCoSi9c5CtZU-111" vertex="1">
          <mxGeometry y="52" width="260" height="26" as="geometry" />
        </mxCell>
        <mxCell id="IfCNX7LFpCoSi9c5CtZU-114" value="-hasMoved:boolean" style="text;strokeColor=none;fillColor=#FFFFFF;align=left;verticalAlign=top;spacingLeft=4;spacingRight=4;overflow=hidden;rotatable=0;points=[[0,0.5],[1,0.5]];portConstraint=eastwest;whiteSpace=wrap;html=1;" parent="IfCNX7LFpCoSi9c5CtZU-111" vertex="1">
          <mxGeometry y="78" width="260" height="26" as="geometry" />
        </mxCell>
        <mxCell id="IfCNX7LFpCoSi9c5CtZU-115" value="" style="line;strokeWidth=1;fillColor=#FFFFFF;align=left;verticalAlign=middle;spacingTop=-1;spacingLeft=3;spacingRight=3;rotatable=0;labelPosition=right;points=[];portConstraint=eastwest;strokeColor=inherit;" parent="IfCNX7LFpCoSi9c5CtZU-111" vertex="1">
          <mxGeometry y="104" width="260" height="8" as="geometry" />
        </mxCell>
        <mxCell id="IfCNX7LFpCoSi9c5CtZU-116" value="+ChessPiece(id:integer,color:interger)" style="text;strokeColor=none;fillColor=#FFFFFF;align=left;verticalAlign=top;spacingLeft=4;spacingRight=4;overflow=hidden;rotatable=0;points=[[0,0.5],[1,0.5]];portConstraint=eastwest;whiteSpace=wrap;html=1;" parent="IfCNX7LFpCoSi9c5CtZU-111" vertex="1">
          <mxGeometry y="112" width="260" height="26" as="geometry" />
        </mxCell>
        <mxCell id="IfCNX7LFpCoSi9c5CtZU-117" value="+getTypeFromId(id:integer):ChessPieceType" style="text;strokeColor=none;fillColor=#FFFFFF;align=left;verticalAlign=top;spacingLeft=4;spacingRight=4;overflow=hidden;rotatable=0;points=[[0,0.5],[1,0.5]];portConstraint=eastwest;whiteSpace=wrap;html=1;" parent="IfCNX7LFpCoSi9c5CtZU-111" vertex="1">
          <mxGeometry y="138" width="260" height="26" as="geometry" />
        </mxCell>
        <mxCell id="IfCNX7LFpCoSi9c5CtZU-118" value="+getIdFromType():integer" style="text;strokeColor=none;fillColor=#FFFFFF;align=left;verticalAlign=top;spacingLeft=4;spacingRight=4;overflow=hidden;rotatable=0;points=[[0,0.5],[1,0.5]];portConstraint=eastwest;whiteSpace=wrap;html=1;" parent="IfCNX7LFpCoSi9c5CtZU-111" vertex="1">
          <mxGeometry y="164" width="260" height="26" as="geometry" />
        </mxCell>
        <mxCell id="IfCNX7LFpCoSi9c5CtZU-119" value="&amp;lt;&amp;lt;enumeration&amp;gt;&amp;gt;&lt;br&gt;ChessPieceType" style="swimlane;fontStyle=1;align=center;verticalAlign=top;childLayout=stackLayout;horizontal=1;startSize=40;horizontalStack=0;resizeParent=1;resizeParentMax=0;resizeLast=0;collapsible=1;marginBottom=0;whiteSpace=wrap;html=1;fillColor=#FFFFFF;" parent="IfCNX7LFpCoSi9c5CtZU-20" vertex="1">
          <mxGeometry x="890" y="170" width="190" height="210" as="geometry" />
        </mxCell>
        <mxCell id="IfCNX7LFpCoSi9c5CtZU-120" value="BAUER(1),&lt;br&gt;TURM(2),&lt;br&gt;SPRINGER(3),&lt;br&gt;LAUFER_S(4),&lt;br&gt;KOENIGIN(5),&lt;br&gt;KOENIG(6),&lt;br&gt;LAUFER_W(7);&lt;br&gt;&lt;br&gt;-id:integer" style="text;strokeColor=none;fillColor=#FFFFFF;align=left;verticalAlign=top;spacingLeft=4;spacingRight=4;overflow=hidden;rotatable=0;points=[[0,0.5],[1,0.5]];portConstraint=eastwest;whiteSpace=wrap;html=1;" parent="IfCNX7LFpCoSi9c5CtZU-119" vertex="1">
          <mxGeometry y="40" width="190" height="140" as="geometry" />
        </mxCell>
        <mxCell id="IfCNX7LFpCoSi9c5CtZU-121" value="" style="line;strokeWidth=1;fillColor=#FFFFFF;align=left;verticalAlign=middle;spacingTop=-1;spacingLeft=3;spacingRight=3;rotatable=0;labelPosition=right;points=[];portConstraint=eastwest;strokeColor=inherit;" parent="IfCNX7LFpCoSi9c5CtZU-119" vertex="1">
          <mxGeometry y="180" width="190" height="4" as="geometry" />
        </mxCell>
        <mxCell id="IfCNX7LFpCoSi9c5CtZU-122" value="-ChessPieceType(id:integer)" style="text;strokeColor=none;fillColor=#FFFFFF;align=left;verticalAlign=top;spacingLeft=4;spacingRight=4;overflow=hidden;rotatable=0;points=[[0,0.5],[1,0.5]];portConstraint=eastwest;whiteSpace=wrap;html=1;" parent="IfCNX7LFpCoSi9c5CtZU-119" vertex="1">
          <mxGeometry y="184" width="190" height="26" as="geometry" />
        </mxCell>
        <mxCell id="IfCNX7LFpCoSi9c5CtZU-123" value="&amp;lt;&amp;lt;enumeration&amp;gt;&amp;gt;&lt;br&gt;Color" style="swimlane;fontStyle=1;align=center;verticalAlign=top;childLayout=stackLayout;horizontal=1;startSize=40;horizontalStack=0;resizeParent=1;resizeParentMax=0;resizeLast=0;collapsible=1;marginBottom=0;whiteSpace=wrap;html=1;fillColor=#FFFFFF;" parent="IfCNX7LFpCoSi9c5CtZU-20" vertex="1">
          <mxGeometry x="890" y="400" width="160" height="120" as="geometry" />
        </mxCell>
        <mxCell id="IfCNX7LFpCoSi9c5CtZU-124" value="BLACK(2),&lt;br&gt;WHITE(1);&lt;br&gt;- id:integer" style="text;strokeColor=none;fillColor=#FFFFFF;align=left;verticalAlign=top;spacingLeft=4;spacingRight=4;overflow=hidden;rotatable=0;points=[[0,0.5],[1,0.5]];portConstraint=eastwest;whiteSpace=wrap;html=1;" parent="IfCNX7LFpCoSi9c5CtZU-123" vertex="1">
          <mxGeometry y="40" width="160" height="50" as="geometry" />
        </mxCell>
        <mxCell id="IfCNX7LFpCoSi9c5CtZU-125" value="" style="line;strokeWidth=1;fillColor=#FFFFFF;align=left;verticalAlign=middle;spacingTop=-1;spacingLeft=3;spacingRight=3;rotatable=0;labelPosition=right;points=[];portConstraint=eastwest;strokeColor=inherit;" parent="IfCNX7LFpCoSi9c5CtZU-123" vertex="1">
          <mxGeometry y="90" width="160" height="4" as="geometry" />
        </mxCell>
        <mxCell id="IfCNX7LFpCoSi9c5CtZU-126" value="-Color(id:integer)" style="text;strokeColor=none;fillColor=#FFFFFF;align=left;verticalAlign=top;spacingLeft=4;spacingRight=4;overflow=hidden;rotatable=0;points=[[0,0.5],[1,0.5]];portConstraint=eastwest;whiteSpace=wrap;html=1;" parent="IfCNX7LFpCoSi9c5CtZU-123" vertex="1">
          <mxGeometry y="94" width="160" height="26" as="geometry" />
        </mxCell>
        <mxCell id="IfCNX7LFpCoSi9c5CtZU-127" style="edgeStyle=orthogonalEdgeStyle;rounded=0;orthogonalLoop=1;jettySize=auto;html=1;entryX=0;entryY=0.5;entryDx=0;entryDy=0;fillColor=#FFFFFF;" parent="IfCNX7LFpCoSi9c5CtZU-20" source="IfCNX7LFpCoSi9c5CtZU-95" target="IfCNX7LFpCoSi9c5CtZU-114" edge="1">
          <mxGeometry relative="1" as="geometry" />
        </mxCell>
        <mxCell id="IfCNX7LFpCoSi9c5CtZU-128" value="1" style="edgeLabel;html=1;align=center;verticalAlign=middle;resizable=0;points=[];fillColor=#FFFFFF;" parent="IfCNX7LFpCoSi9c5CtZU-127" vertex="1" connectable="0">
          <mxGeometry x="-0.6826" relative="1" as="geometry">
            <mxPoint as="offset" />
          </mxGeometry>
        </mxCell>
        <mxCell id="IfCNX7LFpCoSi9c5CtZU-129" value="1" style="edgeLabel;html=1;align=center;verticalAlign=middle;resizable=0;points=[];fillColor=#FFFFFF;" parent="IfCNX7LFpCoSi9c5CtZU-127" vertex="1" connectable="0">
          <mxGeometry x="0.7113" relative="1" as="geometry">
            <mxPoint as="offset" />
          </mxGeometry>
        </mxCell>
        <mxCell id="IfCNX7LFpCoSi9c5CtZU-130" style="edgeStyle=orthogonalEdgeStyle;rounded=0;orthogonalLoop=1;jettySize=auto;html=1;entryX=0;entryY=0.5;entryDx=0;entryDy=0;fillColor=#FFFFFF;" parent="IfCNX7LFpCoSi9c5CtZU-20" source="IfCNX7LFpCoSi9c5CtZU-113" target="IfCNX7LFpCoSi9c5CtZU-120" edge="1">
          <mxGeometry relative="1" as="geometry" />
        </mxCell>
        <mxCell id="IfCNX7LFpCoSi9c5CtZU-131" style="edgeStyle=orthogonalEdgeStyle;rounded=0;orthogonalLoop=1;jettySize=auto;html=1;entryX=0;entryY=0.5;entryDx=0;entryDy=0;fillColor=#FFFFFF;" parent="IfCNX7LFpCoSi9c5CtZU-20" source="IfCNX7LFpCoSi9c5CtZU-113" target="IfCNX7LFpCoSi9c5CtZU-124" edge="1">
          <mxGeometry relative="1" as="geometry" />
        </mxCell>
      </root>
    </mxGraphModel>
  </diagram>
</mxfile>
